# xmcd
#
# Track frame offsets: 
#        150
#        15430
#        34677
#        48527
#        61352
#        73452
#        91047
#        107857
#        125285
#        138852
#
# Disc length: 2075 seconds
#
# Revision: 4
# Processed by: cddbd v1.5.2PL0 Copyright (c) Steve Scherf et al.
# Submitted via: ExactAudioCopy v0.95a4
#
DISCID=8408190a
DTITLE=The Judds - Rockin' With The Rhythm
DYEAR=1985
DGENRE=Country
TTITLE0=Have Mercy
TTITLE1=Grandpa (Tell Me 'Bout The Good Old Days)
TTITLE2=Working In The Coal Mine
TTITLE3=If I Were You
TTITLE4=Rockin' With The Rythm Of The Rain
TTITLE5=Tears For You
TTITLE6=Cry Myself To Sleep
TTITLE7=River Roll On
TTITLE8=I Wish She Wouldn't Treat You That Way
TTITLE9=Dream Chaser
EXTD=Year: 1985
EXTT0=
EXTT1=Tell Me 'Bout The Good Old Days
EXTT2=
EXTT3=
EXTT4=
EXTT5=
EXTT6=
EXTT7=
EXTT8=
EXTT9=
PLAYORDER=
